<svg xmlns="http://www.w3.org/2000/svg" viewBox="0 0 24 24" role="img" aria-label="YouTube logo">
  <rect width="24" height="24" rx="5" fill="#FF0000"/>
  <path d="M23 12c0-1.7-.2-3.4-.5-5.1-.4-1.3-1.4-2.4-2.7-2.8C17.8 3.6 15.9 3 12 3s-5.8.6-7.8 1.1C3 4.5 1.9 5.7 1.5 7c-.3 1.7-.5 3.4-.5 5.1s.2 3.4.5 5.1c.4 1.3 1.4 2.4 2.7 2.8C6.2 20.4 8.1 21 12 21s5.8-.6 7.8-1.1c1.3-.4 2.3-1.5 2.7-2.8.3-1.7.5-3.4.5-5.1z" fill="#FF0000" opacity="0"/>
  <path d="M9.7 8.3l6.6 3.7-6.6 3.7V8.3z" fill="#fff"/>
</svg>
